<?xml version="1.0" encoding="UTF-8" standalone="no"?>
<!-- Generator: Adobe Illustrator 26.0.1, SVG Export Plug-In . SVG Version: 6.00 Build 0)  -->

<svg
   version="1.1"
   id="Three_lines"
   x="0px"
   y="0px"
   viewBox="0 0 1243.3449 157.67776"
   xml:space="preserve"
   sodipodi:docname="Logo-Red_Hat-Communites_of_Practice-A-Standard-RGB.svg"
   width="1243.345"
   height="157.67776"
   inkscape:version="1.2.1 (9c6d41e410, 2022-07-14)"
   xmlns:inkscape="http://www.inkscape.org/namespaces/inkscape"
   xmlns:sodipodi="http://sodipodi.sourceforge.net/DTD/sodipodi-0.dtd"
   xmlns="http://www.w3.org/2000/svg"
   xmlns:svg="http://www.w3.org/2000/svg"><defs
   id="defs102"><rect
   x="474.74225"
   y="139.9547"
   width="155.91028"
   height="12.140797"
   id="rect530" />
		
		
		
		
		
		
		
		
		
		
		
		
		
		
		
		
		
		
		
		
		
		
		
		
		
		
		
		
		
		
		
		
		
		
		
		
		
		
		
		
		
		
	</defs><sodipodi:namedview
   id="namedview100"
   pagecolor="#ffffff"
   bordercolor="#000000"
   borderopacity="0.25"
   inkscape:showpageshadow="2"
   inkscape:pageopacity="0.0"
   inkscape:pagecheckerboard="0"
   inkscape:deskcolor="#d1d1d1"
   showgrid="false"
   showguides="true"
   inkscape:zoom="0.66602434"
   inkscape:cx="452.68616"
   inkscape:cy="47.295569"
   inkscape:window-width="1920"
   inkscape:window-height="1023"
   inkscape:window-x="0"
   inkscape:window-y="33"
   inkscape:window-maximized="1"
   inkscape:current-layer="Three_line_logo_00000118372839085445595720000009038229924305441700_"><sodipodi:guide
     position="315.44323,40.869252"
     orientation="1,0"
     id="guide578"
     inkscape:locked="false" /><sodipodi:guide
     position="761.35011,17.512233"
     orientation="0,-1"
     id="guide580"
     inkscape:locked="false" /></sodipodi:namedview>
<style
   type="text/css"
   id="style2">
	.st0{fill:#FFFFFF;}
	.st1{fill:#EE0000;}
</style>
<g
   id="Three_line_logo_00000118372839085445595720000009038229924305441700_"
   transform="translate(-2,-2.1)">
	<path
   d="M 318.6,65.3 V 9.3 H 344 c 2.9,0 5.5,0.4 7.8,1.3 2.3,0.9 4.3,2 5.9,3.5 1.6,1.5 2.8,3.2 3.7,5.2 0.9,2 1.3,4.2 1.3,6.6 0,3.6 -1,6.8 -3.1,9.5 -2.1,2.7 -4.9,4.7 -8.4,5.8 l 12.5,24.1 h -9.3 l -11.6,-23 H 327 v 23 z M 343.3,16.6 H 327 v 18.7 h 16.3 c 3.5,0 6.2,-0.9 8.1,-2.7 1.9,-1.8 2.8,-4 2.8,-6.6 0,-2.6 -0.9,-4.8 -2.8,-6.6 -1.8,-1.9 -4.5,-2.8 -8.1,-2.8 z"
   id="path4" /><path
   d="m 366.1,44.9 c 0,-2.9 0.5,-5.6 1.6,-8.2 1.1,-2.6 2.5,-4.8 4.3,-6.7 1.8,-1.9 4,-3.4 6.5,-4.5 2.5,-1.1 5.2,-1.6 8,-1.6 2.8,0 5.4,0.5 7.8,1.6 2.4,1.1 4.5,2.6 6.2,4.5 1.7,1.9 3.1,4.1 4.1,6.8 1,2.6 1.5,5.4 1.5,8.4 v 2.3 H 374 c 0.5,3.4 2.1,6.1 4.6,8.4 2.6,2.2 5.6,3.3 9.1,3.3 2,0 3.9,-0.3 5.7,-1 1.8,-0.6 3.4,-1.5 4.6,-2.6 l 5.1,5 c -2.4,1.9 -4.9,3.2 -7.4,4.1 -2.5,0.9 -5.3,1.3 -8.4,1.3 -3,0 -5.8,-0.5 -8.4,-1.6 -2.6,-1.1 -4.9,-2.6 -6.8,-4.4 -1.9,-1.9 -3.4,-4.1 -4.5,-6.7 -1,-2.7 -1.5,-5.5 -1.5,-8.4 z m 20.2,-14.3 c -3.1,0 -5.8,1 -8,3 -2.2,2 -3.7,4.6 -4.2,7.8 h 24.2 c -0.5,-3.1 -1.9,-5.7 -4.2,-7.8 -2.3,-2.1 -4.9,-3 -7.8,-3 z"
   id="path6" /><path
   d="m 445.1,65.3 v -3.8 c -1.7,1.4 -3.6,2.5 -5.8,3.3 -2.2,0.8 -4.4,1.2 -6.7,1.2 -2.9,0 -5.6,-0.5 -8.1,-1.6 -2.5,-1.1 -4.7,-2.6 -6.5,-4.5 -1.8,-1.9 -3.3,-4.1 -4.4,-6.7 -1.1,-2.6 -1.6,-5.3 -1.6,-8.2 0,-2.9 0.5,-5.6 1.6,-8.2 1.1,-2.6 2.5,-4.8 4.4,-6.7 1.8,-1.9 4,-3.4 6.6,-4.5 2.5,-1.1 5.3,-1.6 8.2,-1.6 2.3,0 4.5,0.3 6.6,1 2.1,0.7 4,1.7 5.7,3 V 9.3 l 8,-1.8 V 65.3 Z M 419.9,44.8 c 0,4 1.3,7.4 4,10.1 2.7,2.7 6,4.1 9.8,4.1 2.3,0 4.5,-0.4 6.4,-1.3 1.9,-0.9 3.5,-2.1 4.9,-3.6 V 35.6 c -1.3,-1.4 -2.9,-2.6 -4.9,-3.5 -2,-0.9 -4.1,-1.3 -6.4,-1.3 -3.9,0 -7.2,1.3 -9.9,4 -2.6,2.7 -3.9,6 -3.9,10 z"
   id="path8" /><path
   d="m 480.1,65.3 v -56 h 8.4 v 24 h 29.8 v -24 h 8.4 v 56 h -8.4 V 40.9 h -29.8 v 24.4 z"
   id="path10" /><path
   d="m 549.2,66 c -4.4,0 -8,-1.2 -10.8,-3.5 -2.8,-2.3 -4.2,-5.3 -4.2,-8.9 0,-4.1 1.6,-7.1 4.7,-9.2 3.1,-2.1 7.1,-3.2 11.8,-3.2 2,0 3.9,0.2 5.8,0.6 1.9,0.4 3.7,0.9 5.3,1.6 v -4.3 c 0,-2.9 -0.9,-5 -2.6,-6.5 -1.7,-1.4 -4.2,-2.2 -7.4,-2.2 -2,0 -4,0.3 -6,0.9 -2.1,0.6 -4.3,1.4 -6.6,2.6 l -3,-6 c 2.9,-1.3 5.7,-2.4 8.4,-3.1 2.7,-0.7 5.5,-1.1 8.3,-1.1 5.2,0 9.3,1.3 12.2,3.8 2.9,2.5 4.4,6.1 4.4,10.8 v 27 h -7.8 v -3.5 c -1.8,1.4 -3.7,2.5 -5.8,3.2 -2,0.6 -4.3,1 -6.7,1 z m -7.3,-12.6 c 0,2 0.9,3.6 2.6,4.8 1.7,1.2 3.9,1.8 6.6,1.8 2.1,0 4.1,-0.3 5.9,-1 1.8,-0.6 3.4,-1.6 4.9,-2.9 V 49 c -1.5,-0.8 -3.1,-1.4 -4.8,-1.8 -1.7,-0.4 -3.6,-0.6 -5.7,-0.6 -2.8,0 -5,0.6 -6.8,1.8 -1.8,1.2 -2.7,2.9 -2.7,5 z"
   id="path12" /><path
   d="M 582.6,55.2 V 31.3 H 574 v -6.7 h 8.6 V 14.1 l 7.9,-1.9 v 12.3 h 12 v 6.7 h -12 v 22.1 c 0,2.1 0.5,3.5 1.4,4.4 0.9,0.9 2.5,1.3 4.6,1.3 1.2,0 2.2,-0.1 3,-0.2 0.9,-0.1 1.8,-0.4 2.8,-0.8 v 6.7 c -1.1,0.4 -2.4,0.7 -3.8,0.9 -1.4,0.2 -2.7,0.3 -3.8,0.3 -3.9,0 -7,-0.9 -9,-2.8 -2,-1.9 -3.1,-4.4 -3.1,-7.9 z"
   id="path14" /><path
   d="m 362.83883,123.40369 7.6,7.5 c -5.4,6.4 -14.2,10.3 -23,10.3 -16.9,0 -29.8,-12.6 -29.8,-28.8 0,-16.200003 13,-28.900003 29.8,-28.900003 9,0 18,4 23.3,10.5 l -7.8,7.800003 c -4,-5.000003 -9.4,-7.600003 -15.4,-7.600003 -10.2,0 -17.9,7.800003 -17.9,18.200003 0,10.2 7.8,18.1 18.2,18.1 5.8,0 11.1,-2.4 15,-7.1 z"
   id="path50" /><path
   d="m 395.23883,98.003687 c 12.5,0 22.2,9.500003 22.2,21.700003 0,12.2 -9.8,21.6 -22.2,21.6 -12.4,0 -22.2,-9.4 -22.2,-21.6 0,-12.2 9.7,-21.700003 22.2,-21.700003 z m 0,9.500003 c -6.4,0 -11.5,5.3 -11.5,12.2 0,6.7 5,12.1 11.5,12.1 6.5,0 11.5,-5.4 11.5,-12.1 0,-6.9 -5,-12.2 -11.5,-12.2 z"
   id="path52" /><path
   d="m 424.03883,98.803687 h 11 v 3.100003 c 3,-2.600003 6.6,-3.900003 10.9,-3.900003 5.4,0 9.8,2.300003 12.6,6.200003 3.4,-4 8.2,-6.200003 13.8,-6.200003 9.4,0 16,6.900003 16,16.600003 v 25.9 h -11 v -24.3 c 0,-5.2 -3,-8.7 -7.9,-8.7 -3.4,0 -6.1,1.4 -8,4.2 0.2,0.9 0.2,1.9 0.2,3 v 25.9 h -11 v -24.3 c 0,-5.2 -3,-8.7 -7.8,-8.7 -3.3,0 -5.9,1.4 -7.8,3.8 v 29.2 h -11 z"
   id="path54" /><path
   d="m 496.53883,98.803687 h 11 v 3.100003 c 3,-2.600003 6.6,-3.900003 10.9,-3.900003 5.4,0 9.8,2.300003 12.6,6.200003 3.4,-4 8.2,-6.200003 13.8,-6.200003 9.4,0 16,6.900003 16,16.600003 v 25.9 h -11 v -24.3 c 0,-5.2 -3,-8.7 -7.9,-8.7 -3.4,0 -6.1,1.4 -8,4.2 0.2,0.9 0.2,1.9 0.2,3 v 25.9 h -11 v -24.3 c 0,-5.2 -3,-8.7 -7.8,-8.7 -3.3,0 -5.9,1.4 -7.8,3.8 v 29.2 h -11 z"
   id="path56" /><path
   d="m 579.53883,123.10369 c 0,5.2 3.4,8.7 8.7,8.7 3.7,0 6.6,-1.4 8.6,-4.2 V 98.703687 h 11 v 41.700003 h -11 v -3.4 c -3.1,2.7 -7.1,4.2 -11.7,4.2 -9.8,0 -16.5,-6.9 -16.5,-16.6 V 98.703687 h 10.9 z"
   id="path58" /><path
   d="m 616.03883,98.803687 h 11 v 3.400003 c 3.1,-2.700003 7.1,-4.200003 11.7,-4.200003 9.8,0 16.5,6.900003 16.5,16.600003 v 25.9 h -10.9 v -24.3 c 0,-5.2 -3.4,-8.7 -8.7,-8.7 -3.7,0 -6.6,1.4 -8.6,4.2 v 28.9 h -11 z"
   id="path60" /><path
   d="m 662.73883,87.603687 c 0,-3.4 2.9,-6.2 6.2,-6.2 3.4,0 6.2,2.8 6.2,6.2 0,3.4 -2.8,6.2 -6.2,6.2 -3.4,0 -6.2,-2.8 -6.2,-6.2 z m 11.7,52.900003 h -11 V 98.803687 h 11 z"
   id="path62" /><path
   d="m 688.63883,108.00369 h -8.6 v -9.200003 h 8.6 v -10.6 l 11,-2.5 v 13.1 h 11.8 v 9.200003 h -11.8 v 18.5 c 0,3.9 1.5,5.4 5.8,5.4 2.2,0 3.8,-0.3 5.8,-1 v 9 c -2.4,0.7 -6.2,1.3 -8.5,1.3 -9.1,0 -14.1,-4.2 -14.1,-12.4 z"
   id="path64" /><path
   d="m 859.74504,98.264702 c 12.5,0 22.2,9.499998 22.2,21.699998 0,12.2 -9.8,21.6 -22.2,21.6 -12.4,0 -22.2,-9.4 -22.2,-21.6 0,-12.2 9.7,-21.699998 22.2,-21.699998 z m 0,9.499998 c -6.4,0 -11.5,5.3 -11.5,12.2 0,6.7 5,12.1 11.5,12.1 6.5,0 11.5,-5.4 11.5,-12.1 0,-6.9 -5,-12.2 -11.5,-12.2 z"
   id="path68" /><path
   d="m 893.14504,99.064702 v -4 c 0,-9.1 5.4,-14.5 15.8,-14.5 2.2,0 4.6,0.2 6.5,0.7 v 9.2 c -1.7,-0.4 -3.1,-0.6 -5.1,-0.6 -4.2,0 -6.2,1.8 -6.2,5.4 v 3.8 h 11.3 v 9.199998 h -11.4 v 32.5 h -11 v -32.5 h -9.3 v -9.199998 z"
   id="path70" /><path
   d="m 937.94504,84.664702 h 28.1 c 11,0 18.8,7.4 18.8,17.599998 0,9.8 -7.8,17.3 -18.8,17.3 h -16.5 v 21.1 h -11.6 z m 11.6,10 V 109.9647 h 15.2 c 5.2,0 8.3,-3.2 8.3,-7.6 0,-4.499998 -3.1,-7.699998 -8.3,-7.699998 z"
   id="path72" /><path
   d="m 991.54504,99.064702 h 10.99996 v 4.599998 c 2.8,-3.699998 6.7,-5.499998 11.1,-5.499998 2.2,0.1 3.4,0.3 4.6,1 v 9.599998 c -1.4,-0.7 -3.5,-1.1 -5.6,-1.1 -4.1,0 -7.9,2 -10.1,6.2 v 27 h -10.99996 z"
   id="path74" /><path
   d="m 1021.145,128.6647 c 0,-8.2 6.7,-12.6 17.1,-12.6 3.6,0 7,0.6 10.2,1.6 v -3 c 0,-4.9 -3,-7.3 -8.8,-7.3 -3.8,0 -7.8,1.3 -12.7,3.4 l -4,-8.1 c 6.5,-2.999998 12.4,-4.499998 18.6,-4.499998 11.1,0 17.8,5.399998 17.8,15.399998 v 27 h -10.8 v -3 c -3.5,2.6 -7.4,3.7 -12.1,3.7 -9.3,0.2 -15.3,-5.3 -15.3,-12.6 z m 18,4.9 c 3.5,0 6.6,-0.9 9.2,-2.6 v -6.2 c -2.6,-1 -5.4,-1.5 -8.8,-1.5 -4.8,0 -8,1.8 -8,5.2 0,3.1 3,5.1 7.6,5.1 z"
   id="path76" /><path
   d="m 1097.945,127.2647 6.6,6.8 c -4.3,4.7 -10.5,7.4 -17,7.4 -12.3,0 -21.8,-9.4 -21.8,-21.6 0,-12.2 9.5,-21.699998 21.8,-21.699998 6.6,0 13,2.699998 17.3,7.399998 l -6.7,7.1 c -3.1,-3.4 -6.5,-5 -10.3,-5 -6.3,0 -11.2,5.3 -11.2,12.2 0,6.9 5,12 11.4,12 3.8,0.1 7,-1.5 9.9,-4.6 z"
   id="path78" /><path
   d="m 1116.745,108.2647 h -8.6 v -9.199998 h 8.6 v -10.6 l 11,-2.5 v 13.1 h 11.8 v 9.199998 h -11.8 v 18.5 c 0,3.9 1.5,5.4 5.8,5.4 2.2,0 3.8,-0.3 5.8,-1 v 9 c -2.4,0.7 -6.2,1.3 -8.5,1.3 -9.1,0 -14.1,-4.2 -14.1,-12.4 z"
   id="path80" /><path
   d="m 1143.945,87.864702 c 0,-3.4 2.9,-6.2 6.2,-6.2 3.4,0 6.2,2.8 6.2,6.2 0,3.4 -2.8,6.2 -6.2,6.2 -3.3,0 -6.2,-2.8 -6.2,-6.2 z m 11.8,52.899998 h -11 V 99.064702 h 11 z"
   id="path82" /><path
   d="m 1194.545,127.2647 6.6,6.8 c -4.3,4.7 -10.5,7.4 -17,7.4 -12.3,0 -21.8,-9.4 -21.8,-21.6 0,-12.2 9.5,-21.699998 21.8,-21.699998 6.6,0 13,2.699998 17.3,7.399998 l -6.7,7.1 c -3.1,-3.4 -6.5,-5 -10.3,-5 -6.3,0 -11.2,5.3 -11.2,12.2 0,6.9 5,12 11.4,12 3.7,0.1 6.9,-1.5 9.9,-4.6 z"
   id="path84" /><path
   d="m 1224.745,98.264702 c 11.8,0 20.6,9.599998 20.6,22.399998 v 2.9 h -31 c 1.5,5.2 6.1,8.7 11.8,8.7 3.7,0 7,-1.2 9.2,-3.4 l 7.2,6.6 c -5.1,4.2 -10.2,6 -16.9,6 -12.6,0 -22.4,-9.4 -22.4,-21.6 0,-12 9.4,-21.599998 21.5,-21.599998 z m -10.5,17.499998 h 20.4 c -1.4,-5 -5.3,-8.4 -10.2,-8.4 -5,0 -8.9,3.3 -10.2,8.4 z"
   id="path86" /><text
   xml:space="preserve"
   id="text528"
   style="font-size:8px;font-family:'Droid Sans';-inkscape-font-specification:'Droid Sans, @wght=700';font-variation-settings:'wght' 700;white-space:pre;shape-inside:url(#rect530);fill:#000000;stroke-width:1.00535" />
	<g
   id="Hat_icon_00000021079271952898372910000013149529292008146096_">
		<g
   id="g94">
			<g
   id="g92">
				<path
   id="Red_hat_00000097472487907780545280000009067654598108751286_"
   class="st1"
   d="m 129,92.2 c 12.5,0 30.6,-2.6 30.6,-17.5 0,-1.2 0,-2.3 -0.3,-3.4 L 151.8,39 C 150.1,31.9 148.6,28.7 136.1,22.4 126.4,17.4 105.3,9.3 99,9.3 c -5.8,0 -7.5,7.5 -14.4,7.5 -6.7,0 -11.6,-5.6 -17.9,-5.6 -6,0 -9.9,4.1 -12.9,12.5 0,0 -8.4,23.7 -9.5,27.2 -0.3,0.6 -0.3,1.3 -0.3,1.9 0,9.2 36.3,39.4 85,39.4 z m 32.5,-11.4 c 1.7,8.2 1.7,9.1 1.7,10.1 0,14 -15.7,21.8 -36.4,21.8 -46.8,0 -87.7,-27.4 -87.7,-45.5 0,-2.8 0.6,-5.4 1.5,-7.3 C 23.8,60.8 2,63.8 2,83 c 0,31.5 74.6,70.3 133.7,70.3 45.3,0 56.7,-20.5 56.7,-36.6 -0.1,-12.8 -11,-27.3 -30.9,-35.9 z" />
				<path
   id="Black_band_00000078032747528684572850000009595289263178481058_"
   d="m 161.5,80.8 c 1.7,8.2 1.7,9.1 1.7,10.1 0,14 -15.7,21.8 -36.4,21.8 -46.8,0 -87.7,-27.4 -87.7,-45.5 0,-2.8 0.6,-5.4 1.5,-7.3 l 3.7,-9.1 c -0.3,0.7 -0.3,1.4 -0.3,2 0,9.2 36.3,39.4 85,39.4 12.5,0 30.6,-2.6 30.6,-17.5 0,-1.2 0,-2.3 -0.3,-3.4 z" />
			</g>
		</g>
	</g>
	<path
   id="Dividing_line_00000047062024295058245890000006915784393096896412_"
   d="m 255.5,159.77777 c -1.2,0 -2.2,-0.66057 -2.2,-1.45326 V 3.5532513 C 253.3,2.7605688 254.3,2.1 255.5,2.1 c 1.2,0 2.2,0.6605688 2.2,1.4532513 V 158.32451 c 0,0.79269 -1,1.45326 -2.2,1.45326 z"
   style="stroke-width:0.812754" />
<g
   aria-label="ies"
   id="text584"
   style="font-size:81.3333px;font-family:'Red Hat Display';-inkscape-font-specification:'Red Hat Display, @wght=700';font-variation-settings:'wght' 700;stroke-width:1.00535"><path
     d="M 717.23764,140.73692 V 98.362275 h 11.14266 v 42.374645 z m 5.53066,-47.417309 q -2.60266,0 -4.47333,-1.870666 -1.87066,-1.870666 -1.87066,-4.473332 0,-2.683998 1.87066,-4.473331 1.87067,-1.870666 4.47333,-1.870666 2.684,0 4.47334,1.870666 1.87066,1.789333 1.87066,4.473331 0,2.602666 -1.87066,4.473332 -1.78934,1.870666 -4.47334,1.870666 z"
     id="path532" /><path
     d="m 757.82291,141.55026 q -6.34399,0 -11.54933,-2.928 -5.12399,-2.928 -8.13333,-7.88933 -3.00933,-4.96133 -3.00933,-11.14266 0,-6.18133 2.84667,-11.14267 2.928,-4.96133 7.88933,-7.88933 4.96133,-2.927995 11.06133,-2.927995 6.09999,0 10.81733,3.009335 4.71733,3.00933 7.40133,8.13333 2.76533,5.12399 2.76533,11.63066 v 2.928 h -31.39466 q 0.732,2.52133 2.35867,4.55466 1.708,2.03333 4.148,3.172 2.52133,1.13867 5.368,1.13867 2.84666,0 5.20533,-0.89467 2.44,-0.89467 4.148,-2.52133 l 7.31999,6.66933 q -3.904,3.172 -8.05199,4.636 -4.06667,1.464 -9.19067,1.464 z m -11.46799,-26.18933 h 20.57732 q -0.56933,-2.52133 -2.11466,-4.39199 -1.464,-1.952 -3.57867,-3.00934 -2.03333,-1.13866 -4.55466,-1.13866 -2.60267,0 -4.71733,1.05733 -2.11467,1.05733 -3.57867,3.00933 -1.38267,1.87067 -2.03333,4.47333 z"
     id="path534" /><path
     d="m 801.01086,141.55026 q -5.85599,0 -10.81732,-1.464 -4.96134,-1.54534 -8.62133,-4.392 l 5.53066,-7.40133 q 3.66,2.44 6.99466,3.66 3.416,1.22 6.75067,1.22 3.74133,0 5.93733,-1.22 2.27733,-1.30134 2.27733,-3.33467 0,-1.62666 -1.30133,-2.60266 -1.22,-0.976 -3.98533,-1.38267 l -8.13333,-1.22 q -6.344,-0.976 -9.59733,-4.06666 -3.25333,-3.172 -3.25333,-8.296 0,-4.148 2.11466,-7.076 2.196,-3.00933 6.1,-4.635995 3.98533,-1.708 9.43466,-1.708 4.636,0 9.028,1.301333 4.47333,1.301332 8.37733,3.985332 l -5.368,7.23866 q -3.49733,-2.196 -6.66933,-3.172 -3.172,-0.97599 -6.42533,-0.97599 -3.00933,0 -4.88,1.13866 -1.78933,1.13867 -1.78933,3.00933 0,1.708 1.30133,2.684 1.30133,0.976 4.47333,1.38267 l 8.052,1.22 q 6.344,0.89466 9.67866,4.06666 3.33467,3.09067 3.33467,8.052 0,4.06666 -2.44,7.23866 -2.44,3.09067 -6.588,4.96133 -4.148,1.78934 -9.516,1.78934 z"
     id="path536" /></g></g>
</svg>
