<?xml version="1.0" encoding="UTF-8" standalone="no"?>
<svg
   xmlns:dc="http://purl.org/dc/elements/1.1/"
   xmlns:cc="http://creativecommons.org/ns#"
   xmlns:rdf="http://www.w3.org/1999/02/22-rdf-syntax-ns#"
   xmlns:svg="http://www.w3.org/2000/svg"
   xmlns="http://www.w3.org/2000/svg"
   xmlns:sodipodi="http://sodipodi.sourceforge.net/DTD/sodipodi-0.dtd"
   xmlns:inkscape="http://www.inkscape.org/namespaces/inkscape"
   inkscape:version="0.92.5 (2060ec1f9f, 2020-04-08)"
   sodipodi:docname="Logo-RedHat-Hat-Color-RGB.svg"
   version="1.1"
   viewBox="0 0 192 145"
   data-name="Layer 1"
   id="Layer_1">
  <metadata
     id="metadata970">
    <rdf:RDF>
      <cc:Work
         rdf:about="">
        <dc:format>image/svg+xml</dc:format>
        <dc:type
           rdf:resource="http://purl.org/dc/dcmitype/StillImage" />
        <dc:title>RedHat-Logo-Hat-Color</dc:title>
      </cc:Work>
    </rdf:RDF>
  </metadata>
  <sodipodi:namedview
     pagecolor="#ffffff"
     bordercolor="#666666"
     borderopacity="1"
     objecttolerance="10"
     gridtolerance="10"
     guidetolerance="10"
     inkscape:pageopacity="0"
     inkscape:pageshadow="2"
     inkscape:window-width="1920"
     inkscape:window-height="1023"
     id="namedview968"
     showgrid="false"
     inkscape:zoom="3.4766084"
     inkscape:cx="220.11172"
     inkscape:cy="59.771155"
     inkscape:window-x="0"
     inkscape:window-y="33"
     inkscape:window-maximized="1"
     inkscape:current-layer="Layer_1" />
  <defs
     id="defs959">
    <style
       id="style957">.cls-1{fill:#e00;}</style>
  </defs>
  <title
     id="title961">RedHat-Logo-Hat-Color</title>
  <path
     style="fill:#ff0000"
     d="M 159.04004,69.049804 C 158.11729,64.880899 158.01299,63.732286 157.76953,62.609375 L 150.32031,30.25 C 148.60031,23.13 147.08984,19.900391 134.58984,13.650391 124.88984,8.6903906 103.75977,0.5 97.509766,0.5 91.689766,0.5 90.000547,8 83.060547,8 76.380547,8 71.419922,2.4003906 65.169922,2.4003906 59.169922,2.4003906 55.260234,6.4903906 52.240234,14.900391 52.240234,14.900391 43.83,38.620547 42.75,42.060547 42.578162,42.692033 40.80957,47.580078 40.80957,47.580078 L 39.089844,51.160156 C 22.269844,52.000156 0.5,55.000703 0.5,74.220703 0.5,105.7007 75.090391,144.5 134.15039,144.5 179.43039,144.5 190.84961,124.01961 190.84961,107.84961 190.84961,95.129609 179.84953,80.690312 160.01953,72.070312 H 160 Z"
     id="path1517"
     inkscape:connector-curvature="0"
     sodipodi:nodetypes="ccccsssccccsssccc" />
  <path
     d="M157.77,62.61a14,14,0,0,1,.31,3.42c0,14.88-18.1,17.46-30.61,17.46C78.83,83.49,42.53,53.26,42.53,44a6.43,6.43,0,0,1,.22-1.94l-3.66,9.06a18.45,18.45,0,0,0-1.51,7.33c0,18.11,41,45.48,87.74,45.48,20.69,0,36.43-7.76,36.43-21.77,0-1.08,0-1.94-1.73-10.13Z"
     id="path963" />
</svg>
